<svg width="83" height="29" viewBox="0 0 83 29" fill="none" xmlns="http://www.w3.org/2000/svg">
<rect width="83" height="29" rx="14.5" fill="#EB5757"/>
<path d="M14 8.75V19.25L22.25 14L14 8.75Z" fill="white"/>
<path d="M34.348 10.2C35.1973 10.2 35.9347 10.34 36.56 10.62C37.1947 10.9 37.68 11.3013 38.016 11.824C38.352 12.3467 38.52 12.9673 38.52 13.686C38.52 14.3953 38.352 15.016 38.016 15.548C37.68 16.0707 37.1947 16.472 36.56 16.752C35.9347 17.032 35.1973 17.172 34.348 17.172H32.136V20H30.316V10.2H34.348ZM34.264 15.632C35.0573 15.632 35.6593 15.464 36.07 15.128C36.4807 14.792 36.686 14.3113 36.686 13.686C36.686 13.0607 36.4807 12.58 36.07 12.244C35.6593 11.908 35.0573 11.74 34.264 11.74H32.136V15.632H34.264ZM40.3375 10.2H42.1575V18.46H47.2815V20H40.3375V10.2ZM55.1427 17.732H50.2427L49.2767 20H47.4007L51.8107 10.2H53.6027L58.0267 20H56.1227L55.1427 17.732ZM54.5407 16.304L52.6927 12.02L50.8587 16.304H54.5407ZM62.9131 16.542V20H61.0931V16.57L57.2431 10.2H59.1891L62.0591 14.974L64.9571 10.2H66.7491L62.9131 16.542Z" fill="white"/>
</svg>
